<svg id="Capa_1" data-name="Capa 1" xmlns="http://www.w3.org/2000/svg" viewBox="0 0 522.11 265.19"><defs><style>.cls-1{fill:#d9e021;}.cls-1,.cls-2,.cls-3,.cls-4{stroke:#231f20;stroke-linecap:round;stroke-width:2px;opacity:0.89;}.cls-1,.cls-2,.cls-3,.cls-4,.cls-6{stroke-miterlimit:10;}.cls-3,.cls-6{fill:#fcee21;}.cls-4{fill:#e6e7e8;}.cls-5{font-size:60px;font-family:BerlinSansFBDemi-Bold, Berlin Sans FB Demi;font-weight:700;}.cls-6{stroke:#000;}</style></defs><title>logo</title><ellipse class="cls-1" cx="69.7" cy="112.72" rx="4.47" ry="4.83"/><ellipse class="cls-1" cx="85.7" cy="112.72" rx="4.47" ry="4.83"/><ellipse class="cls-1" cx="85.7" cy="86.72" rx="4.47" ry="4.83"/><ellipse class="cls-1" cx="60.7" cy="98.72" rx="4.47" ry="4.83"/><ellipse class="cls-1" cx="94.7" cy="98.72" rx="4.47" ry="4.83"/><ellipse class="cls-1" cx="69.7" cy="86.72" rx="4.47" ry="4.83"/><circle class="cls-2" cx="76.97" cy="159.15" r="18.02"/><ellipse class="cls-3" cx="77.7" cy="159.58" rx="11.47" ry="11.31"/><circle class="cls-4" cx="77.27" cy="34.23" r="18.02"/><ellipse class="cls-3" cx="77.7" cy="34.58" rx="11.47" ry="11.31"/><circle class="cls-2" cx="27.27" cy="69.23" r="18.02"/><ellipse class="cls-3" cx="27.7" cy="69.58" rx="11.47" ry="11.31"/><circle class="cls-4" cx="27.27" cy="124.23" r="18.02"/><ellipse class="cls-3" cx="27.7" cy="124.58" rx="11.47" ry="11.31"/><circle class="cls-2" cx="127.27" cy="68.23" r="18.02"/><ellipse class="cls-3" cx="540.62" cy="334.58" rx="11.47" ry="11.71" transform="translate(-432.77 368.87) rotate(-60)"/><circle class="cls-4" cx="126.27" cy="124.23" r="18.02"/><ellipse class="cls-3" cx="126.7" cy="124.58" rx="11.47" ry="11.31"/><text class="cls-5" transform="translate(0.38 239.42) rotate(-0.43)">E<tspan class="cls-6" x="33.9" y="0">feg</tspan></text><text class="cls-5" transform="matrix(-1, 0.01, 0.01, 1, 153.03, 238.52)">E</text><text x="-413.33" y="-266.61"></text><text x="-413.33" y="-266.61"></text></svg>