<svg height="496pt" viewBox="0 -68 496 496" stroke="#252519" stroke-width="3" fill="#30869F" width="496pt" xmlns="http://www.w3.org/2000/svg"><path d="m432 256v-216c0-4.417969-3.582031-8-8-8h-352c-4.417969 0-8 3.582031-8 8v216c0 4.417969 3.582031 8 8 8h352c4.417969 0 8-3.582031 8-8zm-16-8h-336v-200h336zm0 0"/><path d="m488 280h-32v-240c-.027344-22.082031-17.917969-39.9726562-40-40h-336c-22.082031.0273438-39.972656 17.917969-40 40v240h-32c-4.417969 0-8 3.582031-8 8v32c.0273438 22.082031 17.917969 39.972656 40 40h416c22.082031-.027344 39.972656-17.917969 40-40v-32c0-4.417969-3.582031-8-8-8zm-432-240c0-13.253906 10.746094-24 24-24h336c13.253906 0 24 10.746094 24 24v240h-384zm229.753906 256-4 16h-67.507812l-4-16zm194.246094 24c0 13.253906-10.746094 24-24 24h-416c-13.253906 0-24-10.746094-24-24v-24h177.761719l6.476562 25.945312c.894531 3.558594 4.09375 6.054688 7.761719 6.054688h80c3.667969 0 6.867188-2.496094 7.761719-6.054688l6.476562-25.945312h177.761719zm0 0"/><path d="m80 304h-48c-4.417969 0-8 3.582031-8 8s3.582031 8 8 8h48c4.417969 0 8-3.582031 8-8s-3.582031-8-8-8zm0 0"/><path d="m120 304h-16c-4.417969 0-8 3.582031-8 8s3.582031 8 8 8h16c4.417969 0 8-3.582031 8-8s-3.582031-8-8-8zm0 0"/><path d="m96 216h88c4.417969 0 8-3.582031 8-8v-128c0-4.417969-3.582031-8-8-8h-88c-4.417969 0-8 3.582031-8 8v128c0 4.417969 3.582031 8 8 8zm8-128h72v112h-72zm0 0"/><path d="m208 88h191.0625c4.417969 0 8-3.582031 8-8s-3.582031-8-8-8h-191.0625c-4.417969 0-8 3.582031-8 8s3.582031 8 8 8zm0 0"/><path d="m400 104h-64.6875c-4.417969 0-8 3.582031-8 8s3.582031 8 8 8h64.6875c4.417969 0 8-3.582031 8-8s-3.582031-8-8-8zm0 0"/><path d="m208 120h96.273438c4.417968 0 8-3.582031 8-8s-3.582032-8-8-8h-96.273438c-4.417969 0-8 3.582031-8 8s3.582031 8 8 8zm0 0"/><path d="m208 216h8c4.417969 0 8-3.582031 8-8s-3.582031-8-8-8h-8c-4.417969 0-8 3.582031-8 8s3.582031 8 8 8zm0 0"/><path d="m376 200h-127.0625c-4.417969 0-8 3.582031-8 8s3.582031 8 8 8h127.0625c4.417969 0 8-3.582031 8-8s-3.582031-8-8-8zm0 0"/><path d="m208 184h192.6875c4.417969 0 8-3.582031 8-8s-3.582031-8-8-8h-192.6875c-4.417969 0-8 3.582031-8 8s3.582031 8 8 8zm0 0"/><path d="m208 152h192c4.417969 0 8-3.582031 8-8s-3.582031-8-8-8h-192c-4.417969 0-8 3.582031-8 8s3.582031 8 8 8zm0 0"/></svg>